<?xml version="1.0" encoding="utf-8"?>
<!-- Generator: Adobe Illustrator 16.0.0, SVG Export Plug-In . SVG Version: 6.00 Build 0)  -->
<!DOCTYPE svg PUBLIC "-//W3C//DTD SVG 1.1//EN" "http://www.w3.org/Graphics/SVG/1.1/DTD/svg11.dtd">
<svg version="1.1" id="Layer_1" xmlns="http://www.w3.org/2000/svg" xmlns:xlink="http://www.w3.org/1999/xlink" x="0px" y="0px"
	 width="672.081px" height="556.29px" viewBox="-56.007 -84.988 672.081 556.29"
	 enable-background="new -56.007 -84.988 672.081 556.29" xml:space="preserve">
<path id="path1" fill="#FFFFFF" d="M56.805,470.459c-11.662-3.34-28.538-20.91-47.252-49.192
	c-37.988-57.416-58.615-121.814-64.689-201.961c-1.17-15.426-1.158-54.455,0.021-68.736c5.555-67.338,25.19-125.329,61.22-180.799
	c11.033-16.987,29.32-39.24,38.078-46.338c12.391-10.045,20.192-10.856,27.677-2.882c3.053,3.251,3.755,4.766,4.146,8.933
	c0.736,7.851-2.617,13.982-18.209,33.311C36.006-10.201,25.953,4.833,14.819,27.066c-25.284,50.486-36.104,103.581-34.553,169.561
	c0.826,35.15,3.96,61.06,10.874,89.88c6.226,25.952,13.697,46.882,24.888,69.7c11.235,22.913,20.676,37.409,39.557,60.738
	c16.563,20.466,20.678,27.574,20.678,35.726c0,8.109-4.771,15.443-11.502,17.687C61.039,471.599,60.786,471.601,56.805,470.459
	L56.805,470.459z M494.03,470.769c-3.525-0.899-9.83-9.034-10.539-13.603c-1.146-7.362,2.502-13.92,19.518-35.067
	c8.377-10.407,18.678-24.085,22.893-30.397c30.871-46.185,48.02-97.576,52.59-157.6c1.412-18.504,0.684-66.179-1.285-84.059
	c-4.119-37.447-11.725-68.082-24.895-100.296c-12.602-30.826-25.637-52.689-47.662-79.922C489.86-48.46,485.5-55.137,484.014-61.781
	c-1.455-6.51-0.41-11.344,3.666-16.89c5.576-7.609,11.959-8.29,21.932-2.335c12.076,7.204,27.73,26.021,45.898,55.177
	c36.561,58.663,55.414,123.199,59.939,205.175c3.852,69.651-10.225,140.155-39.65,198.544
	c-20.309,40.304-51.291,81.604-67.791,90.364C503.696,470.54,497.51,471.655,494.03,470.769L494.03,470.769z M129.148,428.297
	c-9.876-3.594-15.602-15.438-13.221-27.351c1.473-7.369,7.636-14.941,13.632-16.753c6.039-1.826,318.464-1.826,324.5,0
	c6.182,1.867,12.254,9.466,13.604,17.022c1.771,9.902-1.936,20.038-9.143,24.989l-3.811,2.62l-161.549,0.183
	C204.31,429.109,130.503,428.79,129.148,428.297L129.148,428.297z M252.211,337.162c-30.001-13.095-54.964-38.612-67.742-69.256
	c-7.104-17.034-11.228-37.666-11.224-56.161c0.005-25,8.151-48.825,32.973-96.417c18.486-35.448,21.637-41.91,27.073-55.524
	c7.233-18.117,9.619-28.878,9.771-44.078c0.145-14.527-1.67-23.148-7.246-34.424c-3.959-8.002-12.864-20.049-16.479-22.292
	c-5.895-3.657-7.116-8.625-2.931-11.917c6.619-5.204,24.706-1.904,41.322,7.542c18.801,10.688,32.658,26.033,41.681,46.161
	c6.957,15.513,9.76,27.401,14.479,61.371c5.232,37.695,10.424,49.654,20.918,48.208c5.559-0.766,9.029-3.299,11.371-8.298
	c3.729-7.963,2.131-18.864-5.412-36.903c-6.164-14.737-5.781-19.191,1.447-16.896c3.744,1.188,15.895,13.098,24.307,23.824
	c21.047,26.841,31.521,51.225,36.559,85.107c2.643,17.771,2.863,47.24,0.469,62.64c-3.021,19.429-9.145,37.769-17.846,53.451
	c-9.701,17.487-29.941,39.613-44.658,48.815c-6.645,4.157-8.951,4.411-12.209,1.335c-4.053-3.824-3.197-6.484,5.762-17.9
	c13.455-17.152,20.324-29.346,24.311-43.151c6.15-21.299,3.09-50.992-7.207-69.92c-4.266-7.839-10.516-14.752-13.34-14.752
	c-1.545,0-1.289,2.447,1.578,15.047c1.002,4.414,1.824,9.81,1.824,11.988c0,11.53-13.561,19.889-25.506,15.721
	c-9.709-3.388-13.986-13.95-12.701-31.357c0.398-5.378,0.752-15.152,0.789-21.719c0.066-11.581-0.027-12.166-3.082-19.395
	c-5.953-14.091-19.725-28.604-27.138-28.604c-3.198,0-3.461,0.231-3.461,3.052c0,1.892,0.887,4.044,2.337,5.669
	c7.682,8.605,9.125,26.232,3.428,41.798c-3.522,9.619-7.494,15.065-21.06,28.884c-17.85,18.18-23.601,26.839-27.167,40.891
	c-1.65,6.502-1.821,9.148-1.356,21.063c0.78,19.999,4.176,33.258,12.116,47.286c6.096,10.771,13.232,17.607,22.927,21.952
	c4.661,2.09,5.175,2.631,5.175,5.443c0,3.265-2.067,5.408-5.115,5.309C261.047,340.721,256.667,339.107,252.211,337.162
	L252.211,337.162z"/>
</svg>
